<?xml version="1.0" encoding="UTF-8"?>
<svg width="35px" height="36px" viewBox="0 0 35 36" version="1.1" xmlns="http://www.w3.org/2000/svg" xmlns:xlink="http://www.w3.org/1999/xlink">
    <!-- Generator: Sketch 51.1 (57501) - http://www.bohemiancoding.com/sketch -->
    <title>客服</title>
    <desc>Created with Sketch.</desc>
    <defs></defs>
    <g id="Page-1" stroke="none" stroke-width="1" fill="none" fill-rule="evenodd">
        <g id="Artboard" transform="translate(-602.000000, -328.000000)" fill-rule="nonzero">
            <g id="客服-(1)" transform="translate(602.000000, 328.000000)">
                <g id="Group-5">
                    <g id="客服">
                        <path d="M20.3841648,29.2008556 C17.8640476,31.0681109 15.914866,29.4616455 15.6857644,29.2669224 C15.2784727,28.8983394 14.6638987,28.9192026 14.2784262,29.2877856 C13.8929537,29.6563685 13.9147729,30.2648782 14.3002454,30.6334612 C14.980277,31.262834 16.3185211,32 17.9549609,32 C19.0677399,32 20.3150707,31.6522802 21.6096764,30.6995279 C22.0424238,30.3726713 22.1333371,29.7676389 21.791503,29.3538523 C21.4496689,28.9609289 20.8132757,28.873999 20.3841648,29.2008556 Z" id="Shape" fill="#1996F9"></path>
                        <path d="M10.5005691,19 C9.68108354,19 9,19.6809905 9,20.5003642 L9,22.4996358 C9,23.3190095 9.68108354,24 10.5005691,24 C11.3200546,24 12.0011382,23.3190095 12.0011382,22.4996358 L12.0011382,20.5003642 C12.0011382,19.6809905 11.3419076,19 10.5005691,19 Z M23.4994309,19 C22.6799454,19 21.9988618,19.6809905 21.9988618,20.5003642 L21.9988618,22.4996358 C21.9988618,23.3190095 22.6799454,24 23.4994309,24 C24.3189165,24 25,23.3190095 25,22.4996358 L25,20.5003642 C25,19.6809905 24.3407694,19 23.4994309,19 Z" id="Shape" fill="#1996F9"></path>
                        <path d="M33.0722305,15.5703456 C33.0722305,7.27655804 25.7980406,0 17.5069521,0 C9.21586368,0 1.9452169,7.27655804 1.9452169,15.5703456 C0.885800047,15.5703456 0,16.456434 0,17.5161957 L0,24.3284434 C0,25.3882052 0.885800047,26.2742936 1.9452169,26.2742936 L2.91959695,26.2742936 C3.97901381,26.2742936 4.86481386,25.3882052 4.86481386,24.3284434 L4.86481386,20.4331988 L4.90733226,20.4331988 C12.4897807,20.0114207 17.7974945,14.5070395 20.4052899,11.0335729 C22.017446,12.4265039 26.2870022,15.8113616 30.4644352,16.4528896 C30.266016,16.7612484 30.1561768,17.1156838 30.1561768,17.5126514 L30.1561768,24.3248991 C30.1561768,24.7892094 30.3333368,25.2109875 30.5990768,25.5406124 C30.1136584,29.1239539 27.0169014,32.0196909 21.3371515,34.1640248 C21.1812507,33.5437629 20.6072523,33.0794526 19.9234146,33.0794526 L15.0550576,33.0794526 C14.2578376,33.0794526 13.5952591,33.7422467 13.5952591,34.5397263 C13.5952591,35.3372059 14.2578376,36 15.0550576,36 L19.9198714,36 C20.4513515,36 20.9367699,35.6916412 21.1812507,35.2698631 C27.2613822,33.0581865 30.7301752,30.006498 31.4848769,26.1821404 C31.6832961,26.2494831 31.8817153,26.2920154 32.0801345,26.2920154 L33.0545145,26.2920154 C34.1139314,26.2920154 34.9997314,25.4059269 34.9997314,24.3461652 L34.9997314,17.5161957 C35.0174474,16.4528896 34.1564498,15.5703456 33.0722305,15.5703456 Z" id="Shape" fill="#1996F9"></path>
                        <path d="M21.8746257,6.83394043 C21.4141388,6.57681594 20.8235907,6.74823227 20.5599531,7.19734305 C20.493165,7.30362117 14.7036844,17.4446111 5.00885301,18 L5.00885301,17.0572102 C5.00885301,16.3509749 4.59054811,15.7304478 4,15.4116135 C4.021091,15.3259053 4.04218201,15.2607671 4.04218201,15.1750589 C4.04218201,8.16070281 10.3589376,2 17.5544851,2 C24.4196068,2 30.4727249,7.60531391 31,14.2151275 C27.1825283,13.7865867 22.8834787,10.3856867 21.5477151,9.23034069 C21.96602,8.60981358 22.2050514,8.18127277 22.2507486,8.0955646 C22.510871,7.64645382 22.3562036,7.07049496 21.8746257,6.83394043 Z" id="Shape" fill="#7BC4FF"></path>
                    </g>
                </g>
            </g>
        </g>
    </g>
</svg>